<svg width="158" height="93" viewBox="0 0 158 93" fill="none" xmlns="http://www.w3.org/2000/svg">
<g clip-path="url(#clip0_14893_172339)">
<path fill-rule="evenodd" clip-rule="evenodd" d="M157.47 41.7601C157.489 38.8759 157.194 34.3797 157.194 34.3797C149.665 13.0971 131.193 5.5049 110.939 1.99497C89.8798 -1.65282 69.2974 0.680068 49.9768 10.5948C48.752 11.2704 47.3792 11.6327 45.9805 11.6493C44.5818 11.666 43.2007 11.3365 41.9602 10.6903C33.7315 6.89403 24.9301 5.26101 16.0334 4.2006C7.82584 3.20383 4.75067 6.93644 7.34865 14.5607C7.49323 14.9449 7.62011 15.3355 7.74683 15.7256L7.74684 15.7256C7.94543 16.337 8.14365 16.9473 8.40906 17.5299C11.2615 23.7014 12.4068 29.4806 4.60221 33.0542C4.39452 33.1506 4.23352 33.3456 4.07204 33.5412L4.07202 33.5412C4.00266 33.6253 3.93321 33.7094 3.85993 33.7858C2.04664 35.7582 -0.137788 38.2819 0.901407 40.6042C1.67458 42.332 3.5689 41.7295 5.36153 41.1593C5.97832 40.9631 6.58307 40.7708 7.12597 40.6785C19.0979 38.6743 31.1865 38.1229 43.2751 37.6139C69.7533 36.5535 96.1998 36.2036 122.71 37.6139C126.879 37.8581 131.055 38.1669 135.227 38.4753L135.229 38.4755C136.128 38.542 137.028 38.6085 137.927 38.6743C139.931 38.8228 141.924 39.2045 142.052 41.7601C142.189 44.4747 140.185 45.3866 137.948 45.5351C136.281 45.643 134.614 45.7583 132.947 45.8737L132.944 45.8739C126.91 46.2914 120.87 46.7093 114.831 46.7758C111.838 46.8056 108.844 46.8385 105.85 46.8714L105.843 46.8715C75.8545 47.201 45.8455 47.5308 15.9591 44.7928C13.9305 44.6084 11.9167 44.4116 9.89868 44.2144C7.73941 44.0034 5.57525 43.7919 3.38275 43.5946C0.54087 43.3401 -1.00732 43.4249 0.731742 47.1999C2.73502 51.2977 5.95274 54.6783 9.94664 56.8814C11.3872 57.6793 12.6037 58.827 13.484 60.2188C14.3643 61.6105 14.88 63.2015 14.9836 64.845C15.8743 72.533 18.5041 74.5265 25.9269 71.9497C33.5618 69.2669 40.359 69.5744 47.347 73.8161C51.4942 76.1553 56.0853 77.6002 60.8248 78.0577C64.9815 78.5985 67.6856 80.5072 68.1627 84.8442C68.7884 90.4856 71.9378 92.511 77.4837 92.2671C85.0125 91.9489 92.5732 92.0338 100.113 92.1398C104.227 92.2034 107.005 90.7507 107.535 86.5091C108.161 81.6948 110.992 80.0088 115.584 79.1923C128.977 76.817 139.973 69.6805 149.665 60.5292C153.345 57.0723 155.349 53.3924 157.194 48.0164C157.194 48.0164 157.453 44.2057 157.47 41.7601ZM44.7597 62.0986C34.3459 59.5498 24.1626 56.1376 14.3155 51.8975C29.4248 55.6796 44.7718 58.4394 60.2521 60.1581C85.7442 62.8303 111.045 62.6818 135.975 55.7256C136.263 55.6446 136.572 55.5259 136.891 55.4034C138.244 54.8839 139.772 54.2974 140.535 56.2452C141.267 58.016 139.782 59.5324 138.255 60.4868C130.196 65.5237 121.172 67.6657 111.894 68.864C88.9996 71.8437 66.8054 67.7293 44.7597 62.0986ZM14.5118 34.2799L14.5112 34.2801L14.5109 34.2801C13.7631 34.5203 13.016 34.7602 12.2689 34.9947C30.8821 26.5757 50.5632 20.7527 70.7607 17.6889C87.6742 15.144 104.556 14.285 121.459 17.7526C126.439 18.7762 131.291 20.3518 135.922 22.4501L135.935 22.4561C137.691 23.26 139.477 24.0774 140.249 26.0343C140.302 26.1672 140.357 26.3017 140.412 26.4375C140.959 27.7752 141.557 29.2355 140.546 30.4774C139.589 31.6527 138.319 31.1449 137.18 30.6894C136.994 30.6148 136.811 30.5416 136.633 30.4774C118.023 23.8711 98.766 22.2062 79.1591 22.6516C58.1207 23.0758 37.7716 27.1371 17.7512 33.2556C16.6688 33.5872 15.5902 33.9336 14.513 34.2795L14.5127 34.2796L14.5123 34.2797L14.5118 34.2799ZM75.8189 83.0837C74.3548 83.0837 73.1679 84.2706 73.1679 85.7347C73.1679 87.1988 74.3548 88.3857 75.8189 88.3857H77.4095V83.0837H75.8189ZM83.7719 83.0838H79.5303V88.3858H83.7719V83.0838ZM85.8927 83.0838H90.1343V88.3858H85.8927V83.0838ZM96.4967 83.0838H92.2551V88.3858H96.4967V83.0838ZM100.208 83.0838C101.672 83.0838 102.859 84.2707 102.859 85.7348C102.859 87.1989 101.672 88.3858 100.208 88.3858H98.6175V83.0838H100.208Z" fill="#FFCC00"/>
</g>
<defs>
<clipPath id="clip0_14893_172339">
<rect width="158" height="92.255" fill="white" transform="translate(0 0.37207)"/>
</clipPath>
</defs>
</svg>
