<svg width="178" height="53" viewBox="0 0 178 53" fill="none" xmlns="http://www.w3.org/2000/svg">
<path d="M20.7667 0.799805H0V8.21647H12.6083L0 45.2998V52.7165H20.7667V45.2998H8.15833L20.7667 8.21647V0.799805Z" fill="#FFCC00"/>
<path d="M23.7334 52.7165V0.799805H44.5001V8.21647H31.1501V23.0498H40.0501V28.9831H31.1501V45.2998H44.5001V52.7165H23.7334Z" fill="#FFCC00"/>
<path d="M97.8999 52.7165V0.799805H118.667V8.21647H105.317V23.0498H114.217V28.9831H105.317V45.2998H118.667V52.7165H97.8999Z" fill="#FFCC00"/>
<path fill-rule="evenodd" clip-rule="evenodd" d="M47.4668 0.798828V52.7155H54.8835V30.4655H65.2668C65.2668 30.4655 67.3645 29.8511 68.2335 28.9822C69.1024 28.1132 69.7168 26.0155 69.7168 26.0155V5.24883C69.7168 5.24883 69.1024 3.15108 68.2335 2.28216C67.3645 1.41324 65.2668 0.798828 65.2668 0.798828H47.4668ZM54.8835 8.21549H61.041C61.7672 8.21549 62.3856 8.73968 62.4878 9.45869C62.7075 11.0046 63.0418 13.6779 63.0418 15.6322C63.0418 17.5865 62.7075 20.2597 62.4878 21.8056C62.3856 22.5246 61.7672 23.0488 61.041 23.0488H54.8835V8.21549Z" fill="#FFCC00"/>
<path fill-rule="evenodd" clip-rule="evenodd" d="M72.6833 0.798828V52.7155H80.1V30.4655H90.4833C90.4833 30.4655 92.5811 29.8511 93.45 28.9822C94.3189 28.1132 94.9333 26.0155 94.9333 26.0155V5.24883C94.9333 5.24883 94.3189 3.15108 93.45 2.28216C92.5811 1.41324 90.4833 0.798828 90.4833 0.798828H72.6833ZM80.1 8.21549H86.2576C86.9838 8.21549 87.6021 8.73968 87.7043 9.45869C87.924 11.0046 88.2583 13.6779 88.2583 15.6322C88.2583 17.5865 87.924 20.2597 87.7043 21.8056C87.6021 22.5246 86.9838 23.0488 86.2575 23.0488H80.1V8.21549Z" fill="#FFCC00"/>
<path d="M163.167 0.799805H155.75V52.7165H163.167V26.0165L170.583 52.7165H178V0.799805H170.583V27.4998L163.167 0.799805Z" fill="#FFCC00"/>
<path d="M129.05 0.799805H121.633V52.7165H142.4V45.2998H129.05V0.799805Z" fill="#FFCC00"/>
<path d="M152.783 0.799805H145.367V52.7165H152.783V0.799805Z" fill="#FFCC00"/>
</svg>
